<?xml version="1.0" encoding="utf-8"?>
<!DOCTYPE svg PUBLIC "-//W3C//DTD SVG 20010904//EN" "http://www.w3.org/TR/2001/REC-SVG-20010904/DTD/svg10.dtd">
<svg version="1.0" xmlns="http://www.w3.org/2000/svg" width="21px" height="20px" viewBox="0 0 21 20" preserveAspectRatio="xMidYMid meet">
 <g fill="#67c5d7">
  <path d="M2.9 17.1 c-6.9 -6.9 -0.9 -17.9 9.2 -16.9 1.8 0.2 3.4 0.8 3.6 1.4 0.3 0.8 -1 1 -4.1 0.7 -3.8 -0.5 -4.8 -0.2 -7 2 -3.2 3.2 -3.4 7.4 -0.5 11.1 2.8 3.5 9.5 3.7 12.7 0.3 2.2 -2.4 3.2 -9.7 1.3 -9.7 -0.5 0 -2.3 2.3 -4 5 -1.7 2.8 -3.4 5 -3.8 5 -0.5 0 -1.8 -1.6 -3.1 -3.5 -1.6 -2.6 -1.8 -3.5 -0.8 -3.5 0.7 0 2 0.9 2.7 2.1 1.3 1.9 1.6 1.8 4.8 -3.7 l3.5 -5.6 1.8 2.2 c2.9 3.6 2.4 9.6 -1.1 13.1 -4.2 4.2 -11 4.2 -15.2 0z"/>
 </g>
</svg>