<?xml version="1.0" encoding="utf-8"?>
<!DOCTYPE svg PUBLIC "-//W3C//DTD SVG 20010904//EN" "http://www.w3.org/TR/2001/REC-SVG-20010904/DTD/svg10.dtd">
<svg version="1.0" xmlns="http://www.w3.org/2000/svg" width="21px" height="20px" viewBox="0 0 21 20" preserveAspectRatio="xMidYMid meet">
 <g fill="#da4a4a">
  <path d="M3.4 16.6 c-4.6 -4.6 -4.6 -8.6 0 -13.2 3.5 -3.5 8.3 -4.5 11.5 -2.5 1 0.7 0 0.9 -3.2 0.8 -3.9 -0.2 -5.1 0.3 -7.3 2.5 -7 6.9 1.6 17.9 10.4 13.4 3.7 -1.9 5.5 -6.6 4.1 -10.4 -1 -2.7 -1 -2.7 -4.6 3.2 -3.6 5.9 -3.6 5.9 -6 3 -3 -3.8 -3 -5.4 0.1 -2.5 2.4 2.2 2.4 2.2 5.6 -3.1 3.2 -5.2 3.2 -5.2 5.1 -2.9 4.8 5.9 -0.3 15.1 -8.3 15.1 -3.2 0 -4.7 -0.7 -7.4 -3.4z"/>
 </g>
</svg>